<mxfile host="app.diagrams.net" agent="Mozilla/5.0 (Windows NT 10.0; Win64; x64) AppleWebKit/537.36 (KHTML, like Gecko) Chrome/131.0.0.0 Safari/537.36" version="26.0.9">
  <diagram name="Page-1" id="L_6g52KMQLyTZJToliaS">
    <mxGraphModel dx="1500" dy="813" grid="1" gridSize="10" guides="1" tooltips="1" connect="1" arrows="1" fold="1" page="1" pageScale="1" pageWidth="827" pageHeight="1169" math="0" shadow="0">
      <root>
        <mxCell id="0" />
        <mxCell id="1" parent="0" />
        <mxCell id="VrBmJHEWK8MFLRyp_3YT-1" value="" style="shape=umlLifeline;perimeter=lifelinePerimeter;whiteSpace=wrap;html=1;container=1;dropTarget=0;collapsible=0;recursiveResize=0;outlineConnect=0;portConstraint=eastwest;newEdgeStyle={&quot;curved&quot;:0,&quot;rounded&quot;:0};participant=umlActor;size=50;fontStyle=1" parent="1" vertex="1">
          <mxGeometry x="72" y="40" width="21" height="1090" as="geometry" />
        </mxCell>
        <mxCell id="VrBmJHEWK8MFLRyp_3YT-2" value="" style="html=1;points=[[0,0,0,0,5],[0,1,0,0,-5],[1,0,0,0,5],[1,1,0,0,-5]];perimeter=orthogonalPerimeter;outlineConnect=0;targetShapes=umlLifeline;portConstraint=eastwest;newEdgeStyle={&quot;curved&quot;:0,&quot;rounded&quot;:0};fontStyle=1" parent="VrBmJHEWK8MFLRyp_3YT-1" vertex="1">
          <mxGeometry x="5" y="80" width="10" height="1000" as="geometry" />
        </mxCell>
        <mxCell id="VrBmJHEWK8MFLRyp_3YT-3" value="AS: Authentication" style="shape=umlLifeline;perimeter=lifelinePerimeter;whiteSpace=wrap;html=1;container=1;dropTarget=0;collapsible=0;recursiveResize=0;outlineConnect=0;portConstraint=eastwest;newEdgeStyle={&quot;curved&quot;:0,&quot;rounded&quot;:0};fontStyle=1" parent="1" vertex="1">
          <mxGeometry x="389" y="40" width="100" height="960" as="geometry" />
        </mxCell>
        <mxCell id="VrBmJHEWK8MFLRyp_3YT-4" value="" style="html=1;points=[[0,0,0,0,5],[0,1,0,0,-5],[1,0,0,0,5],[1,1,0,0,-5]];perimeter=orthogonalPerimeter;outlineConnect=0;targetShapes=umlLifeline;portConstraint=eastwest;newEdgeStyle={&quot;curved&quot;:0,&quot;rounded&quot;:0};fontStyle=1" parent="VrBmJHEWK8MFLRyp_3YT-3" vertex="1">
          <mxGeometry x="45" y="241" width="10" height="50" as="geometry" />
        </mxCell>
        <mxCell id="VrBmJHEWK8MFLRyp_3YT-5" value="" style="html=1;points=[[0,0,0,0,5],[0,1,0,0,-5],[1,0,0,0,5],[1,1,0,0,-5]];perimeter=orthogonalPerimeter;outlineConnect=0;targetShapes=umlLifeline;portConstraint=eastwest;newEdgeStyle={&quot;curved&quot;:0,&quot;rounded&quot;:0};fontStyle=1" parent="VrBmJHEWK8MFLRyp_3YT-3" vertex="1">
          <mxGeometry x="45" y="490" width="10" height="20" as="geometry" />
        </mxCell>
        <mxCell id="VrBmJHEWK8MFLRyp_3YT-7" value="" style="html=1;points=[[0,0,0,0,5],[0,1,0,0,-5],[1,0,0,0,5],[1,1,0,0,-5]];perimeter=orthogonalPerimeter;outlineConnect=0;targetShapes=umlLifeline;portConstraint=eastwest;newEdgeStyle={&quot;curved&quot;:0,&quot;rounded&quot;:0};fontStyle=1" parent="VrBmJHEWK8MFLRyp_3YT-3" vertex="1">
          <mxGeometry x="45" y="139" width="10" height="71" as="geometry" />
        </mxCell>
        <mxCell id="VrBmJHEWK8MFLRyp_3YT-50" value="" style="html=1;points=[[0,0,0,0,5],[0,1,0,0,-5],[1,0,0,0,5],[1,1,0,0,-5]];perimeter=orthogonalPerimeter;outlineConnect=0;targetShapes=umlLifeline;portConstraint=eastwest;newEdgeStyle={&quot;curved&quot;:0,&quot;rounded&quot;:0};fontStyle=1" parent="VrBmJHEWK8MFLRyp_3YT-3" vertex="1">
          <mxGeometry x="45" y="390" width="10" height="30" as="geometry" />
        </mxCell>
        <mxCell id="VrBmJHEWK8MFLRyp_3YT-8" value="Database" style="shape=umlLifeline;perimeter=lifelinePerimeter;whiteSpace=wrap;html=1;container=1;dropTarget=0;collapsible=0;recursiveResize=0;outlineConnect=0;portConstraint=eastwest;newEdgeStyle={&quot;curved&quot;:0,&quot;rounded&quot;:0};fontStyle=1" parent="1" vertex="1">
          <mxGeometry x="608" y="40" width="100" height="920" as="geometry" />
        </mxCell>
        <mxCell id="VrBmJHEWK8MFLRyp_3YT-9" value="" style="html=1;points=[[0,0,0,0,5],[0,1,0,0,-5],[1,0,0,0,5],[1,1,0,0,-5]];perimeter=orthogonalPerimeter;outlineConnect=0;targetShapes=umlLifeline;portConstraint=eastwest;newEdgeStyle={&quot;curved&quot;:0,&quot;rounded&quot;:0};fontStyle=1" parent="VrBmJHEWK8MFLRyp_3YT-8" vertex="1">
          <mxGeometry x="45" y="149.5" width="10" height="50" as="geometry" />
        </mxCell>
        <mxCell id="VrBmJHEWK8MFLRyp_3YT-10" value="Metamask Wallet" style="shape=umlLifeline;perimeter=lifelinePerimeter;whiteSpace=wrap;html=1;container=1;dropTarget=0;collapsible=0;recursiveResize=0;outlineConnect=0;portConstraint=eastwest;newEdgeStyle={&quot;curved&quot;:0,&quot;rounded&quot;:0};fontStyle=1" parent="1" vertex="1">
          <mxGeometry x="832" y="40" width="100" height="980" as="geometry" />
        </mxCell>
        <mxCell id="VrBmJHEWK8MFLRyp_3YT-11" value="" style="html=1;points=[[0,0,0,0,5],[0,1,0,0,-5],[1,0,0,0,5],[1,1,0,0,-5]];perimeter=orthogonalPerimeter;outlineConnect=0;targetShapes=umlLifeline;portConstraint=eastwest;newEdgeStyle={&quot;curved&quot;:0,&quot;rounded&quot;:0};fontStyle=1" parent="VrBmJHEWK8MFLRyp_3YT-10" vertex="1">
          <mxGeometry x="45" y="400" width="10" height="40" as="geometry" />
        </mxCell>
        <mxCell id="VrBmJHEWK8MFLRyp_3YT-74" value="" style="html=1;points=[[0,0,0,0,5],[0,1,0,0,-5],[1,0,0,0,5],[1,1,0,0,-5]];perimeter=orthogonalPerimeter;outlineConnect=0;targetShapes=umlLifeline;portConstraint=eastwest;newEdgeStyle={&quot;curved&quot;:0,&quot;rounded&quot;:0};fontStyle=1" parent="VrBmJHEWK8MFLRyp_3YT-10" vertex="1">
          <mxGeometry x="45" y="662" width="10" height="10" as="geometry" />
        </mxCell>
        <mxCell id="VrBmJHEWK8MFLRyp_3YT-13" value="" style="shape=umlLifeline;perimeter=lifelinePerimeter;whiteSpace=wrap;html=1;container=1;dropTarget=0;collapsible=0;recursiveResize=0;outlineConnect=0;portConstraint=eastwest;newEdgeStyle={&quot;curved&quot;:0,&quot;rounded&quot;:0};participant=umlActor;size=50;fontStyle=1" parent="1" vertex="1">
          <mxGeometry x="241" y="40" width="20" height="1070" as="geometry" />
        </mxCell>
        <mxCell id="VrBmJHEWK8MFLRyp_3YT-16" value="Enter ID" style="html=1;verticalAlign=bottom;endArrow=block;curved=0;rounded=0;fontStyle=1" parent="1" edge="1">
          <mxGeometry x="0.1601" width="80" relative="1" as="geometry">
            <mxPoint x="89" y="155" as="sourcePoint" />
            <mxPoint x="241.5" y="155" as="targetPoint" />
            <mxPoint as="offset" />
          </mxGeometry>
        </mxCell>
        <mxCell id="VrBmJHEWK8MFLRyp_3YT-17" value="Enter DOB" style="html=1;verticalAlign=bottom;endArrow=block;curved=0;rounded=0;fontStyle=1" parent="1" edge="1">
          <mxGeometry x="0.1789" width="80" relative="1" as="geometry">
            <mxPoint x="90" y="180" as="sourcePoint" />
            <mxPoint x="244" y="180" as="targetPoint" />
            <mxPoint as="offset" />
          </mxGeometry>
        </mxCell>
        <mxCell id="VrBmJHEWK8MFLRyp_3YT-14" value="" style="html=1;points=[[0,0,0,0,5],[0,1,0,0,-5],[1,0,0,0,5],[1,1,0,0,-5]];perimeter=orthogonalPerimeter;outlineConnect=0;targetShapes=umlLifeline;portConstraint=eastwest;newEdgeStyle={&quot;curved&quot;:0,&quot;rounded&quot;:0};fontStyle=1" parent="1" vertex="1">
          <mxGeometry x="246" y="120" width="10" height="970" as="geometry" />
        </mxCell>
        <mxCell id="VrBmJHEWK8MFLRyp_3YT-20" value="Credentials(ID,DOB)" style="html=1;verticalAlign=bottom;endArrow=block;curved=0;rounded=0;entryX=0;entryY=0;entryDx=0;entryDy=5;entryPerimeter=0;fontStyle=1" parent="1" edge="1">
          <mxGeometry width="80" relative="1" as="geometry">
            <mxPoint x="257" y="185" as="sourcePoint" />
            <mxPoint x="432" y="185" as="targetPoint" />
          </mxGeometry>
        </mxCell>
        <mxCell id="VrBmJHEWK8MFLRyp_3YT-22" value="Verify(ID,DOB)" style="html=1;verticalAlign=bottom;endArrow=block;curved=0;rounded=0;exitX=1.5;exitY=0.296;exitDx=0;exitDy=0;exitPerimeter=0;fontStyle=1" parent="1" edge="1">
          <mxGeometry width="80" relative="1" as="geometry">
            <mxPoint x="446" y="198.01599999999996" as="sourcePoint" />
            <mxPoint x="650" y="198" as="targetPoint" />
          </mxGeometry>
        </mxCell>
        <mxCell id="VrBmJHEWK8MFLRyp_3YT-23" value="" style="endArrow=block;dashed=1;endFill=1;endSize=6;html=1;rounded=0;fontStyle=1" parent="1" edge="1">
          <mxGeometry width="160" relative="1" as="geometry">
            <mxPoint x="653" y="233" as="sourcePoint" />
            <mxPoint x="445" y="233" as="targetPoint" />
          </mxGeometry>
        </mxCell>
        <mxCell id="VrBmJHEWK8MFLRyp_3YT-24" value="Status Verified" style="edgeLabel;html=1;align=center;verticalAlign=middle;resizable=0;points=[];fontStyle=1" parent="VrBmJHEWK8MFLRyp_3YT-23" vertex="1" connectable="0">
          <mxGeometry x="0.1306" y="2" relative="1" as="geometry">
            <mxPoint x="10" y="-11" as="offset" />
          </mxGeometry>
        </mxCell>
        <mxCell id="VrBmJHEWK8MFLRyp_3YT-25" value="" style="endArrow=block;dashed=1;endFill=1;endSize=6;html=1;rounded=0;fontStyle=1" parent="1" edge="1">
          <mxGeometry width="160" relative="1" as="geometry">
            <mxPoint x="432" y="243" as="sourcePoint" />
            <mxPoint x="257" y="243" as="targetPoint" />
          </mxGeometry>
        </mxCell>
        <mxCell id="VrBmJHEWK8MFLRyp_3YT-26" value="Notify(OK)" style="edgeLabel;html=1;align=center;verticalAlign=middle;resizable=0;points=[];fontStyle=1" parent="VrBmJHEWK8MFLRyp_3YT-25" vertex="1" connectable="0">
          <mxGeometry x="0.1306" y="2" relative="1" as="geometry">
            <mxPoint x="10" y="-12" as="offset" />
          </mxGeometry>
        </mxCell>
        <mxCell id="VrBmJHEWK8MFLRyp_3YT-27" value="" style="endArrow=block;dashed=1;endFill=1;endSize=6;html=1;rounded=0;fontStyle=1" parent="1" edge="1">
          <mxGeometry width="160" relative="1" as="geometry">
            <mxPoint x="246" y="255.99999999999994" as="sourcePoint" />
            <mxPoint x="91" y="256" as="targetPoint" />
          </mxGeometry>
        </mxCell>
        <mxCell id="VrBmJHEWK8MFLRyp_3YT-28" value="message authenticated" style="edgeLabel;html=1;align=center;verticalAlign=middle;resizable=0;points=[];fontStyle=1" parent="VrBmJHEWK8MFLRyp_3YT-27" vertex="1" connectable="0">
          <mxGeometry x="0.1306" y="2" relative="1" as="geometry">
            <mxPoint x="10" y="-12" as="offset" />
          </mxGeometry>
        </mxCell>
        <mxCell id="VrBmJHEWK8MFLRyp_3YT-29" value="ALT" style="shape=umlFrame;whiteSpace=wrap;html=1;pointerEvents=0;fontStyle=1" parent="1" vertex="1">
          <mxGeometry x="78" y="273" width="1015" height="100" as="geometry" />
        </mxCell>
        <mxCell id="VrBmJHEWK8MFLRyp_3YT-37" value="" style="html=1;points=[[0,0,0,0,5],[0,1,0,0,-5],[1,0,0,0,5],[1,1,0,0,-5]];perimeter=orthogonalPerimeter;outlineConnect=0;targetShapes=umlLifeline;portConstraint=eastwest;newEdgeStyle={&quot;curved&quot;:0,&quot;rounded&quot;:0};fontStyle=1" parent="1" vertex="1">
          <mxGeometry x="654" y="280" width="10" height="20" as="geometry" />
        </mxCell>
        <mxCell id="VrBmJHEWK8MFLRyp_3YT-38" value="" style="endArrow=block;dashed=1;endFill=1;endSize=6;html=1;rounded=0;fontStyle=1" parent="1" edge="1">
          <mxGeometry width="160" relative="1" as="geometry">
            <mxPoint x="438.5" y="313" as="sourcePoint" />
            <mxPoint x="259" y="313" as="targetPoint" />
          </mxGeometry>
        </mxCell>
        <mxCell id="VrBmJHEWK8MFLRyp_3YT-39" value="Notify(ID or DOB not matched)" style="edgeLabel;html=1;align=center;verticalAlign=middle;resizable=0;points=[];fontStyle=1" parent="VrBmJHEWK8MFLRyp_3YT-38" vertex="1" connectable="0">
          <mxGeometry x="0.3307" y="1" relative="1" as="geometry">
            <mxPoint x="33" y="-10" as="offset" />
          </mxGeometry>
        </mxCell>
        <mxCell id="VrBmJHEWK8MFLRyp_3YT-40" value="" style="endArrow=block;dashed=1;endFill=1;endSize=6;html=1;rounded=0;fontStyle=1" parent="1" edge="1">
          <mxGeometry width="160" relative="1" as="geometry">
            <mxPoint x="655" y="294" as="sourcePoint" />
            <mxPoint x="447" y="294" as="targetPoint" />
          </mxGeometry>
        </mxCell>
        <mxCell id="VrBmJHEWK8MFLRyp_3YT-41" value="Status Not Verified" style="edgeLabel;html=1;align=center;verticalAlign=middle;resizable=0;points=[];fontStyle=1" parent="VrBmJHEWK8MFLRyp_3YT-40" vertex="1" connectable="0">
          <mxGeometry x="0.1306" y="2" relative="1" as="geometry">
            <mxPoint x="10" y="-10" as="offset" />
          </mxGeometry>
        </mxCell>
        <mxCell id="VrBmJHEWK8MFLRyp_3YT-43" value="" style="endArrow=block;dashed=1;endFill=1;endSize=6;html=1;rounded=0;fontStyle=1" parent="1" edge="1">
          <mxGeometry width="160" relative="1" as="geometry">
            <mxPoint x="245" y="329.99999999999994" as="sourcePoint" />
            <mxPoint x="90" y="330" as="targetPoint" />
          </mxGeometry>
        </mxCell>
        <mxCell id="VrBmJHEWK8MFLRyp_3YT-44" value="message non authenticated" style="edgeLabel;html=1;align=center;verticalAlign=middle;resizable=0;points=[];fontStyle=1" parent="VrBmJHEWK8MFLRyp_3YT-43" vertex="1" connectable="0">
          <mxGeometry x="0.1306" y="2" relative="1" as="geometry">
            <mxPoint x="10" y="-12" as="offset" />
          </mxGeometry>
        </mxCell>
        <mxCell id="VrBmJHEWK8MFLRyp_3YT-46" value="&lt;span style=&quot;font-size: 12px; background-color: rgb(251, 251, 251);&quot;&gt;&lt;font style=&quot;font-size: 10px;&quot;&gt;Enter Id for Blockchain&lt;/font&gt;&lt;/span&gt;&lt;div style=&quot;font-size: 12px; background-color: rgb(251, 251, 251);&quot;&gt;&lt;span style=&quot;&quot;&gt;&lt;font style=&quot;font-size: 10px;&quot;&gt;Registration&lt;/font&gt;&lt;/span&gt;&lt;/div&gt;" style="html=1;verticalAlign=bottom;endArrow=block;curved=0;rounded=0;fontStyle=1" parent="1" edge="1">
          <mxGeometry x="-0.0909" y="2" width="80" relative="1" as="geometry">
            <mxPoint x="89" y="428" as="sourcePoint" />
            <mxPoint x="243" y="428" as="targetPoint" />
            <mxPoint x="-1" as="offset" />
          </mxGeometry>
        </mxCell>
        <mxCell id="VrBmJHEWK8MFLRyp_3YT-47" value="Check ID with previous&amp;nbsp;&lt;div&gt;entry&lt;/div&gt;" style="html=1;verticalAlign=bottom;endArrow=block;curved=0;rounded=0;fontStyle=1" parent="1" edge="1">
          <mxGeometry width="80" relative="1" as="geometry">
            <mxPoint x="258" y="443" as="sourcePoint" />
            <mxPoint x="433" y="443" as="targetPoint" />
          </mxGeometry>
        </mxCell>
        <mxCell id="VrBmJHEWK8MFLRyp_3YT-51" value="Register ID()" style="html=1;verticalAlign=bottom;endArrow=block;curved=0;rounded=0;exitX=1.278;exitY=0.833;exitDx=0;exitDy=0;exitPerimeter=0;fontStyle=1" parent="1" edge="1">
          <mxGeometry x="-0.1991" y="1" width="80" relative="1" as="geometry">
            <mxPoint x="446" y="456.5000000000001" as="sourcePoint" />
            <mxPoint x="875.5" y="456.5000000000001" as="targetPoint" />
            <mxPoint as="offset" />
          </mxGeometry>
        </mxCell>
        <mxCell id="VrBmJHEWK8MFLRyp_3YT-53" value="" style="endArrow=blockThin;dashed=1;endFill=1;html=1;rounded=0;fontStyle=1" parent="1" edge="1">
          <mxGeometry width="160" relative="1" as="geometry">
            <mxPoint x="1083.5" y="727" as="sourcePoint" />
            <mxPoint x="259" y="727" as="targetPoint" />
          </mxGeometry>
        </mxCell>
        <mxCell id="VrBmJHEWK8MFLRyp_3YT-57" value="&lt;span style=&quot;font-size: 11px; background-color: rgb(255, 255, 255);&quot;&gt;Notify(ID registered)&lt;/span&gt;" style="text;html=1;align=center;verticalAlign=middle;resizable=0;points=[];autosize=1;strokeColor=none;fillColor=none;fontStyle=1" parent="1" vertex="1">
          <mxGeometry x="512" y="619" width="120" height="30" as="geometry" />
        </mxCell>
        <mxCell id="VrBmJHEWK8MFLRyp_3YT-58" value="" style="endArrow=block;dashed=1;endFill=1;endSize=6;html=1;rounded=0;fontStyle=1" parent="1" edge="1">
          <mxGeometry width="160" relative="1" as="geometry">
            <mxPoint x="239" y="749" as="sourcePoint" />
            <mxPoint x="89" y="748.5" as="targetPoint" />
          </mxGeometry>
        </mxCell>
        <mxCell id="VrBmJHEWK8MFLRyp_3YT-59" value="Message ID Registered" style="edgeLabel;html=1;align=center;verticalAlign=middle;resizable=0;points=[];fontStyle=1" parent="VrBmJHEWK8MFLRyp_3YT-58" vertex="1" connectable="0">
          <mxGeometry x="0.1306" y="2" relative="1" as="geometry">
            <mxPoint x="10" y="-90" as="offset" />
          </mxGeometry>
        </mxCell>
        <mxCell id="VrBmJHEWK8MFLRyp_3YT-60" value="ALT" style="shape=umlFrame;whiteSpace=wrap;html=1;pointerEvents=0;fontStyle=1" parent="1" vertex="1">
          <mxGeometry x="78" y="495" width="1015" height="90" as="geometry" />
        </mxCell>
        <mxCell id="VrBmJHEWK8MFLRyp_3YT-61" value="" style="endArrow=block;dashed=1;endFill=1;endSize=6;html=1;rounded=0;entryX=1.007;entryY=0;entryDx=0;entryDy=0;entryPerimeter=0;fontStyle=1" parent="1" edge="1">
          <mxGeometry width="160" relative="1" as="geometry">
            <mxPoint x="407" y="540" as="sourcePoint" />
            <mxPoint x="257" y="541.11" as="targetPoint" />
            <Array as="points">
              <mxPoint x="427" y="541.11" />
            </Array>
          </mxGeometry>
        </mxCell>
        <mxCell id="VrBmJHEWK8MFLRyp_3YT-62" value="Notify(ID Not Matched)" style="edgeLabel;html=1;align=center;verticalAlign=middle;resizable=0;points=[];fontStyle=1" parent="VrBmJHEWK8MFLRyp_3YT-61" vertex="1" connectable="0">
          <mxGeometry x="0.3307" y="1" relative="1" as="geometry">
            <mxPoint x="17" y="-20" as="offset" />
          </mxGeometry>
        </mxCell>
        <mxCell id="VrBmJHEWK8MFLRyp_3YT-64" value="" style="endArrow=block;dashed=1;endFill=1;endSize=6;html=1;rounded=0;entryX=1.007;entryY=0;entryDx=0;entryDy=0;entryPerimeter=0;fontStyle=1" parent="1" edge="1">
          <mxGeometry width="160" relative="1" as="geometry">
            <mxPoint x="244" y="561" as="sourcePoint" />
            <mxPoint x="89" y="561.11" as="targetPoint" />
            <Array as="points" />
          </mxGeometry>
        </mxCell>
        <mxCell id="VrBmJHEWK8MFLRyp_3YT-65" value="Message(ID not matched)" style="edgeLabel;html=1;align=center;verticalAlign=middle;resizable=0;points=[];fontStyle=1" parent="VrBmJHEWK8MFLRyp_3YT-64" vertex="1" connectable="0">
          <mxGeometry x="0.3307" y="1" relative="1" as="geometry">
            <mxPoint x="24" y="-12" as="offset" />
          </mxGeometry>
        </mxCell>
        <mxCell id="VrBmJHEWK8MFLRyp_3YT-66" value="" style="html=1;verticalAlign=bottom;endArrow=block;curved=0;rounded=0;fontStyle=1" parent="1" edge="1">
          <mxGeometry width="80" relative="1" as="geometry">
            <mxPoint x="86" y="796" as="sourcePoint" />
            <mxPoint x="241" y="796" as="targetPoint" />
            <Array as="points">
              <mxPoint x="141" y="796" />
              <mxPoint x="161" y="796" />
            </Array>
          </mxGeometry>
        </mxCell>
        <mxCell id="VrBmJHEWK8MFLRyp_3YT-67" value="Vote()" style="edgeLabel;html=1;align=center;verticalAlign=middle;resizable=0;points=[];fontStyle=1" parent="VrBmJHEWK8MFLRyp_3YT-66" vertex="1" connectable="0">
          <mxGeometry x="-0.0795" y="-1" relative="1" as="geometry">
            <mxPoint y="-11" as="offset" />
          </mxGeometry>
        </mxCell>
        <mxCell id="VrBmJHEWK8MFLRyp_3YT-68" value="" style="endArrow=classic;html=1;rounded=0;fontStyle=0" parent="1" edge="1">
          <mxGeometry width="50" height="50" relative="1" as="geometry">
            <mxPoint x="259" y="809" as="sourcePoint" />
            <mxPoint x="873.5" y="809" as="targetPoint" />
          </mxGeometry>
        </mxCell>
        <mxCell id="VrBmJHEWK8MFLRyp_3YT-69" value="Vote Casted to Selected Candidates" style="edgeLabel;html=1;align=center;verticalAlign=middle;resizable=0;points=[];fontStyle=1" parent="VrBmJHEWK8MFLRyp_3YT-68" vertex="1" connectable="0">
          <mxGeometry x="-0.0219" y="-1" relative="1" as="geometry">
            <mxPoint y="-13" as="offset" />
          </mxGeometry>
        </mxCell>
        <mxCell id="VrBmJHEWK8MFLRyp_3YT-70" value="" style="endArrow=block;dashed=1;endFill=1;endSize=6;html=1;rounded=0;fontStyle=1" parent="1" edge="1">
          <mxGeometry width="160" relative="1" as="geometry">
            <mxPoint x="1077.5" y="838" as="sourcePoint" />
            <mxPoint x="256.5" y="838" as="targetPoint" />
          </mxGeometry>
        </mxCell>
        <mxCell id="VrBmJHEWK8MFLRyp_3YT-71" value="Notify(Vote Casted Status)" style="edgeLabel;html=1;align=center;verticalAlign=middle;resizable=0;points=[];fontStyle=1" parent="VrBmJHEWK8MFLRyp_3YT-70" vertex="1" connectable="0">
          <mxGeometry x="0.3307" y="1" relative="1" as="geometry">
            <mxPoint y="-11" as="offset" />
          </mxGeometry>
        </mxCell>
        <mxCell id="VrBmJHEWK8MFLRyp_3YT-72" value="" style="endArrow=block;dashed=1;endFill=1;endSize=6;html=1;rounded=0;entryX=1.007;entryY=0;entryDx=0;entryDy=0;entryPerimeter=0;fontStyle=1" parent="1" edge="1">
          <mxGeometry width="160" relative="1" as="geometry">
            <mxPoint x="248.5" y="849" as="sourcePoint" />
            <mxPoint x="89" y="849" as="targetPoint" />
            <Array as="points" />
          </mxGeometry>
        </mxCell>
        <mxCell id="VrBmJHEWK8MFLRyp_3YT-73" value="Message(Voted)" style="edgeLabel;html=1;align=center;verticalAlign=middle;resizable=0;points=[];fontStyle=1" parent="VrBmJHEWK8MFLRyp_3YT-72" vertex="1" connectable="0">
          <mxGeometry x="0.3307" y="1" relative="1" as="geometry">
            <mxPoint x="17" y="-11" as="offset" />
          </mxGeometry>
        </mxCell>
        <mxCell id="VrBmJHEWK8MFLRyp_3YT-76" value="Voter" style="text;html=1;align=center;verticalAlign=middle;whiteSpace=wrap;rounded=0;fontStyle=1" parent="1" vertex="1">
          <mxGeometry x="55.25" y="80" width="60.5" height="30" as="geometry" />
        </mxCell>
        <mxCell id="VrBmJHEWK8MFLRyp_3YT-77" value="Voting System" style="text;html=1;align=center;verticalAlign=middle;whiteSpace=wrap;rounded=0;fontStyle=1" parent="1" vertex="1">
          <mxGeometry x="213" y="80" width="80" height="30" as="geometry" />
        </mxCell>
        <mxCell id="VrBmJHEWK8MFLRyp_3YT-80" value="" style="shape=mxgraph.sysml.x;fontStyle=1" parent="1" vertex="1">
          <mxGeometry x="649" y="953" width="20" height="20" as="geometry" />
        </mxCell>
        <mxCell id="VrBmJHEWK8MFLRyp_3YT-81" value="" style="shape=mxgraph.sysml.x;fontStyle=1" parent="1" vertex="1">
          <mxGeometry x="430" y="993" width="20" height="20" as="geometry" />
        </mxCell>
        <mxCell id="VrBmJHEWK8MFLRyp_3YT-83" value="Blockchain" style="shape=umlLifeline;perimeter=lifelinePerimeter;whiteSpace=wrap;html=1;container=1;dropTarget=0;collapsible=0;recursiveResize=0;outlineConnect=0;portConstraint=eastwest;newEdgeStyle={&quot;curved&quot;:0,&quot;rounded&quot;:0};fontStyle=1" parent="1" vertex="1">
          <mxGeometry x="1029" y="40" width="100" height="1010" as="geometry" />
        </mxCell>
        <mxCell id="VrBmJHEWK8MFLRyp_3YT-84" value="" style="html=1;points=[[0,0,0,0,5],[0,1,0,0,-5],[1,0,0,0,5],[1,1,0,0,-5]];perimeter=orthogonalPerimeter;outlineConnect=0;targetShapes=umlLifeline;portConstraint=eastwest;newEdgeStyle={&quot;curved&quot;:0,&quot;rounded&quot;:0};fontStyle=1" parent="VrBmJHEWK8MFLRyp_3YT-83" vertex="1">
          <mxGeometry x="45" y="420" width="10" height="30" as="geometry" />
        </mxCell>
        <mxCell id="VrBmJHEWK8MFLRyp_3YT-85" value="" style="html=1;points=[[0,0,0,0,5],[0,1,0,0,-5],[1,0,0,0,5],[1,1,0,0,-5]];perimeter=orthogonalPerimeter;outlineConnect=0;targetShapes=umlLifeline;portConstraint=eastwest;newEdgeStyle={&quot;curved&quot;:0,&quot;rounded&quot;:0};fontStyle=1" parent="VrBmJHEWK8MFLRyp_3YT-83" vertex="1">
          <mxGeometry x="45" y="660" width="10" height="40" as="geometry" />
        </mxCell>
        <mxCell id="VrBmJHEWK8MFLRyp_3YT-86" value="Confirm" style="html=1;verticalAlign=bottom;endArrow=block;curved=0;rounded=0;fontStyle=1" parent="1" edge="1">
          <mxGeometry width="80" relative="1" as="geometry">
            <mxPoint x="889" y="470.47" as="sourcePoint" />
            <mxPoint x="1074" y="470.47" as="targetPoint" />
          </mxGeometry>
        </mxCell>
        <mxCell id="VrBmJHEWK8MFLRyp_3YT-88" value="ALT" style="shape=umlFrame;whiteSpace=wrap;html=1;pointerEvents=0;fontStyle=1" parent="1" vertex="1">
          <mxGeometry x="78" y="683" width="1015" height="90" as="geometry" />
        </mxCell>
        <mxCell id="VrBmJHEWK8MFLRyp_3YT-89" value="Cancel" style="html=1;verticalAlign=bottom;endArrow=block;curved=0;rounded=0;fontStyle=1" parent="1" edge="1">
          <mxGeometry width="80" relative="1" as="geometry">
            <mxPoint x="890" y="708.47" as="sourcePoint" />
            <mxPoint x="1075" y="708.47" as="targetPoint" />
          </mxGeometry>
        </mxCell>
        <mxCell id="VrBmJHEWK8MFLRyp_3YT-90" value="" style="endArrow=blockThin;dashed=1;endFill=1;html=1;rounded=0;fontStyle=1" parent="1" edge="1">
          <mxGeometry width="160" relative="1" as="geometry">
            <mxPoint x="1072" y="644" as="sourcePoint" />
            <mxPoint x="259" y="644" as="targetPoint" />
          </mxGeometry>
        </mxCell>
        <mxCell id="VrBmJHEWK8MFLRyp_3YT-91" value="&lt;span style=&quot;font-size: 11px; background-color: rgb(255, 255, 255);&quot;&gt;Notify(ID not registered)&lt;/span&gt;" style="text;html=1;align=center;verticalAlign=middle;resizable=0;points=[];autosize=1;strokeColor=none;fillColor=none;fontStyle=1" parent="1" vertex="1">
          <mxGeometry x="504" y="705" width="140" height="30" as="geometry" />
        </mxCell>
        <mxCell id="VrBmJHEWK8MFLRyp_3YT-92" value="" style="endArrow=block;dashed=1;endFill=1;endSize=6;html=1;rounded=0;entryX=1.007;entryY=0;entryDx=0;entryDy=0;entryPerimeter=0;fontStyle=1" parent="1" edge="1">
          <mxGeometry width="160" relative="1" as="geometry">
            <mxPoint x="243" y="668" as="sourcePoint" />
            <mxPoint x="88" y="668.11" as="targetPoint" />
            <Array as="points" />
          </mxGeometry>
        </mxCell>
        <mxCell id="VrBmJHEWK8MFLRyp_3YT-93" value="Message(ID not registered)" style="edgeLabel;html=1;align=center;verticalAlign=middle;resizable=0;points=[];fontStyle=1" parent="VrBmJHEWK8MFLRyp_3YT-92" vertex="1" connectable="0">
          <mxGeometry x="0.3307" y="1" relative="1" as="geometry">
            <mxPoint x="30" y="69" as="offset" />
          </mxGeometry>
        </mxCell>
        <mxCell id="VrBmJHEWK8MFLRyp_3YT-94" value="" style="html=1;points=[[0,0,0,0,5],[0,1,0,0,-5],[1,0,0,0,5],[1,1,0,0,-5]];perimeter=orthogonalPerimeter;outlineConnect=0;targetShapes=umlLifeline;portConstraint=eastwest;newEdgeStyle={&quot;curved&quot;:0,&quot;rounded&quot;:0};fontStyle=1" parent="1" vertex="1">
          <mxGeometry x="876" y="802" width="10" height="27" as="geometry" />
        </mxCell>
        <mxCell id="VrBmJHEWK8MFLRyp_3YT-95" value="Confirm" style="html=1;verticalAlign=bottom;endArrow=block;curved=0;rounded=0;fontStyle=1" parent="1" edge="1">
          <mxGeometry width="80" relative="1" as="geometry">
            <mxPoint x="888" y="823.47" as="sourcePoint" />
            <mxPoint x="1073" y="823.47" as="targetPoint" />
          </mxGeometry>
        </mxCell>
        <mxCell id="VrBmJHEWK8MFLRyp_3YT-96" value="ALT" style="shape=umlFrame;whiteSpace=wrap;html=1;pointerEvents=0;fontStyle=1" parent="1" vertex="1">
          <mxGeometry x="77" y="858" width="1016" height="90" as="geometry" />
        </mxCell>
        <mxCell id="VrBmJHEWK8MFLRyp_3YT-97" value="Cancel" style="html=1;verticalAlign=bottom;endArrow=block;curved=0;rounded=0;fontStyle=1;exitX=1;exitY=0;exitDx=0;exitDy=5;exitPerimeter=0;" parent="1" edge="1">
          <mxGeometry width="80" relative="1" as="geometry">
            <mxPoint x="888" y="897" as="sourcePoint" />
            <mxPoint x="1078" y="896.47" as="targetPoint" />
          </mxGeometry>
        </mxCell>
        <mxCell id="VrBmJHEWK8MFLRyp_3YT-98" value="" style="endArrow=block;dashed=1;endFill=1;endSize=6;html=1;rounded=0;fontStyle=1;exitX=0;exitY=1;exitDx=0;exitDy=-5;exitPerimeter=0;" parent="1" edge="1">
          <mxGeometry width="160" relative="1" as="geometry">
            <mxPoint x="1077" y="918" as="sourcePoint" />
            <mxPoint x="256" y="918" as="targetPoint" />
          </mxGeometry>
        </mxCell>
        <mxCell id="VrBmJHEWK8MFLRyp_3YT-99" value="Notify(Unable to Cast Vote)" style="edgeLabel;html=1;align=center;verticalAlign=middle;resizable=0;points=[];fontStyle=1" parent="VrBmJHEWK8MFLRyp_3YT-98" vertex="1" connectable="0">
          <mxGeometry x="0.3307" y="1" relative="1" as="geometry">
            <mxPoint x="1" y="-11" as="offset" />
          </mxGeometry>
        </mxCell>
        <mxCell id="VrBmJHEWK8MFLRyp_3YT-101" value="" style="html=1;points=[[0,0,0,0,5],[0,1,0,0,-5],[1,0,0,0,5],[1,1,0,0,-5]];perimeter=orthogonalPerimeter;outlineConnect=0;targetShapes=umlLifeline;portConstraint=eastwest;newEdgeStyle={&quot;curved&quot;:0,&quot;rounded&quot;:0};fontStyle=1" parent="1" vertex="1">
          <mxGeometry x="877" y="887" width="10" height="13" as="geometry" />
        </mxCell>
        <mxCell id="VrBmJHEWK8MFLRyp_3YT-102" value="" style="html=1;points=[[0,0,0,0,5],[0,1,0,0,-5],[1,0,0,0,5],[1,1,0,0,-5]];perimeter=orthogonalPerimeter;outlineConnect=0;targetShapes=umlLifeline;portConstraint=eastwest;newEdgeStyle={&quot;curved&quot;:0,&quot;rounded&quot;:0};fontStyle=1" parent="1" vertex="1">
          <mxGeometry x="1076" y="890" width="10" height="34" as="geometry" />
        </mxCell>
        <mxCell id="VrBmJHEWK8MFLRyp_3YT-103" value="" style="html=1;points=[[0,0,0,0,5],[0,1,0,0,-5],[1,0,0,0,5],[1,1,0,0,-5]];perimeter=orthogonalPerimeter;outlineConnect=0;targetShapes=umlLifeline;portConstraint=eastwest;newEdgeStyle={&quot;curved&quot;:0,&quot;rounded&quot;:0};fontStyle=1" parent="1" vertex="1">
          <mxGeometry x="1074" y="813" width="10" height="34" as="geometry" />
        </mxCell>
        <mxCell id="VrBmJHEWK8MFLRyp_3YT-104" value="" style="endArrow=block;dashed=1;endFill=1;endSize=6;html=1;rounded=0;entryX=1.007;entryY=0;entryDx=0;entryDy=0;entryPerimeter=0;fontStyle=1" parent="1" edge="1">
          <mxGeometry width="160" relative="1" as="geometry">
            <mxPoint x="248.5" y="930" as="sourcePoint" />
            <mxPoint x="89" y="930" as="targetPoint" />
            <Array as="points" />
          </mxGeometry>
        </mxCell>
        <mxCell id="VrBmJHEWK8MFLRyp_3YT-105" value="Message(Not Voted)" style="edgeLabel;html=1;align=center;verticalAlign=middle;resizable=0;points=[];fontStyle=1" parent="VrBmJHEWK8MFLRyp_3YT-104" vertex="1" connectable="0">
          <mxGeometry x="0.3307" y="1" relative="1" as="geometry">
            <mxPoint x="17" y="-11" as="offset" />
          </mxGeometry>
        </mxCell>
        <mxCell id="18G9rYNL3eue-CQjK6qH-1" value="" style="shape=mxgraph.sysml.x;fontStyle=1" parent="1" vertex="1">
          <mxGeometry x="240.5" y="1104" width="20.5" height="20" as="geometry" />
        </mxCell>
        <mxCell id="18G9rYNL3eue-CQjK6qH-2" value="" style="shape=mxgraph.sysml.x;fontStyle=1" parent="1" vertex="1">
          <mxGeometry x="871.75" y="1011" width="20.5" height="20" as="geometry" />
        </mxCell>
        <mxCell id="18G9rYNL3eue-CQjK6qH-3" value="" style="shape=mxgraph.sysml.x;fontStyle=1" parent="1" vertex="1">
          <mxGeometry x="1068.75" y="1044" width="20.5" height="20" as="geometry" />
        </mxCell>
        <mxCell id="18G9rYNL3eue-CQjK6qH-9" value="" style="shape=mxgraph.sysml.x;fontStyle=1" parent="1" vertex="1">
          <mxGeometry x="72" y="1124" width="20.5" height="20" as="geometry" />
        </mxCell>
        <mxCell id="18G9rYNL3eue-CQjK6qH-10" value="" style="html=1;points=[[0,0,0,0,5],[0,1,0,0,-5],[1,0,0,0,5],[1,1,0,0,-5]];perimeter=orthogonalPerimeter;outlineConnect=0;targetShapes=umlLifeline;portConstraint=eastwest;newEdgeStyle={&quot;curved&quot;:0,&quot;rounded&quot;:0};fontStyle=1" parent="1" vertex="1">
          <mxGeometry x="1075" y="640" width="10" height="10" as="geometry" />
        </mxCell>
      </root>
    </mxGraphModel>
  </diagram>
</mxfile>
